<svg xmlns="http://www.w3.org/2000/svg" viewBox="0 0 335 608" shape-rendering="geometricPrecision" role="img" aria-label="WORDWERX compact mark">
  <title>WORDWERX compact</title>
  <defs><clipPath id="weave"><rect x="0" y="0" width="335" height="304.0"></rect></clipPath></defs>
  <path d="M 88.00,326.0 L 87.63,326.0 L 193.63,243.28 L 159.63,326.0 L 247.26,326.0 A 48,48 0 0,1 295.26,374.0 L 295.26,520.0 A 48,48 0 0,1 247.26,568.0 L 88.00,568.0 A 48,48 0 0,1 40.00,520.0 L 40.00,374.0 A 48,48 0 0,1 88.00,326.0 Z" fill="#2563EB"></path>
  <path d="M 88.00,40.0 L 247.26,40.0 A 48,48 0 0,1 295.26,88.0 L 295.26,234.0 A 48,48 0 0,1 247.26,282.0 L 247.63,282.0 L 141.63,364.72 L 175.63,282.0 L 88.00,282.0 A 48,48 0 0,1 40.00,234.0 L 40.00,88.0 A 48,48 0 0,1 88.00,40.0 Z" fill="#1F2937"></path>
  <g clip-path="url(#weave)"><polygon points="87.6,326.0 159.6,326.0 193.6,243.3" fill="#2563EB"></polygon></g>
  <path transform="translate(69.125,236.0) scale(0.21866,-0.21866)" d="M143.50128173828125 0 3.81585693359375 688H217.23785400390625L261.843994140625 386.105712890625Q263.44927978515625 378.105712890625 265.65985107421875 360.8162841796875Q267.87042236328125 343.52685546875 270.8836364746094 323.0400695800781Q273.8968505859375 302.55328369140625 276.107421875 285.369140625H282.08099365234375Q283.686279296875 296.34271240234375 285.79156494140625 310.2242126464844Q287.8968505859375 324.105712890625 290.00213623046875 338.0924987792969Q292.107421875 352.07928466796875 294.0153503417969 364.8819274902344Q295.92327880859375 377.6845703125 297.13385009765625 386.105712890625L347.45013427734375 688H557.9505615234375L607.5302734375 386.105712890625Q609.1355590820312 376.105712890625 611.8461303710938 358.3162841796875Q614.5567016601562 340.52685546875 617.5699157714844 320.84271240234375Q620.5831298828125 301.1585693359375 622.793701171875 285.369140625H628.7672729492188Q629.9778442382812 296.1585693359375 631.8857727050781 309.84271240234375Q633.793701171875 323.52685546875 635.2016296386719 337.3162841796875Q636.6095581054688 351.105712890625 638.5174865722656 363.8030700683594Q640.4254150390625 376.50042724609375 642.0307006835938 386.105712890625L687.3734130859375 688H889.216552734375L749.5311279296875 0H521.1355590820312L465.76641845703125 318.84228515625Q464.1611328125 332.23699951171875 461.1479187011719 350.52642822265625Q458.13470458984375 368.81585693359375 455.1214904785156 387.60528564453125Q452.1082763671875 406.39471435546875 449.897705078125 420.18414306640625H443.92413330078125Q441.71356201171875 406.2105712890625 438.8056335449219 387.1317138671875Q435.897705078125 368.0528564453125 432.6871337890625 349.9607849121094Q429.4765625 331.86871337890625 427.2659912109375 318.84228515625L371.8968505859375 0Z" fill="#FFFFFF"></path>
  <path transform="translate(69.125,522.0) scale(0.21866,-0.21866)" d="M143.50128173828125 0 3.81585693359375 688H217.23785400390625L261.843994140625 386.105712890625Q263.44927978515625 378.105712890625 265.65985107421875 360.8162841796875Q267.87042236328125 343.52685546875 270.8836364746094 323.0400695800781Q273.8968505859375 302.55328369140625 276.107421875 285.369140625H282.08099365234375Q283.686279296875 296.34271240234375 285.79156494140625 310.2242126464844Q287.8968505859375 324.105712890625 290.00213623046875 338.0924987792969Q292.107421875 352.07928466796875 294.0153503417969 364.8819274902344Q295.92327880859375 377.6845703125 297.13385009765625 386.105712890625L347.45013427734375 688H557.9505615234375L607.5302734375 386.105712890625Q609.1355590820312 376.105712890625 611.8461303710938 358.3162841796875Q614.5567016601562 340.52685546875 617.5699157714844 320.84271240234375Q620.5831298828125 301.1585693359375 622.793701171875 285.369140625H628.7672729492188Q629.9778442382812 296.1585693359375 631.8857727050781 309.84271240234375Q633.793701171875 323.52685546875 635.2016296386719 337.3162841796875Q636.6095581054688 351.105712890625 638.5174865722656 363.8030700683594Q640.4254150390625 376.50042724609375 642.0307006835938 386.105712890625L687.3734130859375 688H889.216552734375L749.5311279296875 0H521.1355590820312L465.76641845703125 318.84228515625Q464.1611328125 332.23699951171875 461.1479187011719 350.52642822265625Q458.13470458984375 368.81585693359375 455.1214904785156 387.60528564453125Q452.1082763671875 406.39471435546875 449.897705078125 420.18414306640625H443.92413330078125Q441.71356201171875 406.2105712890625 438.8056335449219 387.1317138671875Q435.897705078125 368.0528564453125 432.6871337890625 349.9607849121094Q429.4765625 331.86871337890625 427.2659912109375 318.84228515625L371.8968505859375 0Z" fill="#FFFFFF"></path>
</svg>